<svg xmlns="http://www.w3.org/2000/svg" aria-hidden="true" style="position:absolute;width:0;height:0;overflow:hidden">
  <defs>
    <symbol id="icon-close" viewBox="0 0 32 32">
      <path
        d="M7.934 7.934 6.88 8.987l7.013 7.014-7.013 7.014 1.054 1.053 1.053 1.054 7.014-7.013 7.014 7.013 1.053-1.054 1.054-1.053-7.013-7.014 7.013-7.014-1.054-1.053-1.053-1.054-7.014 7.013L8.987 6.88 7.934 7.934z" />
    </symbol>
    <symbol id="icon-burger" viewBox="0 0 32 32">
      <path stroke-linecap="round" stroke-linejoin="round" stroke-width="2.857" d="M4 20h24M4 12h24" />
    </symbol>
    <symbol id="icon-instagram" viewBox="0 0 32 32">
      <path
        d="M23.385 0H8.616A8.623 8.623 0 0 0 .001 8.615v14.769a8.623 8.623 0 0 0 8.615 8.615h14.769A8.627 8.627 0 0 0 32 23.384V8.615A8.627 8.627 0 0 0 23.385 0zM16 23.385a7.389 7.389 0 0 1-6.823-4.558 7.384 7.384 0 1 1 6.822 4.559zm9.231-14.77a1.847 1.847 0 1 1 0-3.695 1.847 1.847 0 0 1 0 3.695zM20.923 16a4.92 4.92 0 0 1-5.883 4.828 4.93 4.93 0 0 1-2.521-1.347 4.93 4.93 0 0 1-1.067-5.365 4.925 4.925 0 0 1 8.029-1.597A4.923 4.923 0 0 1 20.923 16z" />
    </symbol>
    <symbol id="icon-youtube" viewBox="0 0 32 32">
      <path
        d="m18.672 15.722-3.743-1.747c-.327-.152-.595.018-.595.38v3.29c0 .362.268.532.595.38l3.742-1.747c.328-.153.328-.403.002-.557zM16 0C7.163 0 0 7.163 0 16s7.163 16 16 16 16-7.163 16-16S24.837 0 16 0zm0 22.5c-8.19 0-8.333-.738-8.333-6.5S7.81 9.5 16 9.5s8.333.738 8.333 6.5-.143 6.5-8.333 6.5z" />
    </symbol>
    <symbol id="icon-facebook" viewBox="0 0 32 32">
      <path
        d="M32 16.04C32 7.186 24.832 0 16 0S0 7.186 0 16.04c0 7.763 5.504 14.228 12.8 15.719V20.852H9.6V16.04h3.2v-4.01c0-3.096 2.512-5.614 5.6-5.614h4v4.812h-3.2c-.88 0-1.6.722-1.6 1.604v3.208h4.8v4.812h-4.8V32c8.08-.802 14.4-7.635 14.4-15.96z" />
    </symbol>
    <symbol id="icon-cursor" viewBox="0 0 29 32">
      <path fill="#fbfbfb" style="fill: var(--color1, #fbfbfb)"
        d="M18.8 13.104l1.008 0.208 6.672 3.328c1.12 0.368 1.856 1.472 1.76 2.656v0.416l-1.44 9.792c-0.096 0.688-0.4 1.328-0.96 1.776-0.496 0.48-1.152 0.72-1.84 0.72h-11.008c-0.784 0-1.504-0.288-2.032-0.848l-9.584-9.552 1.44-1.6c0.384-0.4 0.992-0.624 1.568-0.592h0.464l6.352 1.392v-16.8c0-0.849 0.337-1.663 0.937-2.263s1.414-0.937 2.263-0.937c0.849 0 1.663 0.337 2.263 0.937s0.937 1.414 0.937 2.263v9.104h1.2z">
      </path>
    </symbol>
  </defs>
</svg>